<mxfile host="app.diagrams.net" modified="2024-07-19T22:40:05.549Z" agent="Mozilla/5.0 (Windows NT 10.0; Win64; x64) AppleWebKit/537.36 (KHTML, like Gecko) Chrome/126.0.0.0 Safari/537.36" etag="otpVeD0Dml-3ljx9SxUa" version="24.7.2" type="github">
  <diagram id="C5RBs43oDa-KdzZeNtuy" name="Page-1">
    <mxGraphModel dx="1195" dy="643" grid="1" gridSize="10" guides="1" tooltips="1" connect="1" arrows="1" fold="1" page="1" pageScale="1" pageWidth="827" pageHeight="1169" math="0" shadow="0">
      <root>
        <mxCell id="WIyWlLk6GJQsqaUBKTNV-0" />
        <mxCell id="WIyWlLk6GJQsqaUBKTNV-1" parent="WIyWlLk6GJQsqaUBKTNV-0" />
        <mxCell id="zkfFHV4jXpPFQw0GAbJ--0" value="iPhone" style="swimlane;fontStyle=2;align=center;verticalAlign=top;childLayout=stackLayout;horizontal=1;startSize=26;horizontalStack=0;resizeParent=1;resizeLast=0;collapsible=1;marginBottom=0;rounded=0;shadow=0;strokeWidth=1;" parent="WIyWlLk6GJQsqaUBKTNV-1" vertex="1">
          <mxGeometry x="326" y="100" width="176" height="250" as="geometry">
            <mxRectangle x="230" y="140" width="160" height="26" as="alternateBounds" />
          </mxGeometry>
        </mxCell>
        <mxCell id="iZRv-LcQ3xV1FCVpN4_--40" value="- String musicPlaying&amp;nbsp;" style="text;strokeColor=none;fillColor=none;align=left;verticalAlign=top;spacingLeft=4;spacingRight=4;overflow=hidden;rotatable=0;points=[[0,0.5],[1,0.5]];portConstraint=eastwest;whiteSpace=wrap;html=1;" vertex="1" parent="zkfFHV4jXpPFQw0GAbJ--0">
          <mxGeometry y="26" width="176" height="26" as="geometry" />
        </mxCell>
        <mxCell id="iZRv-LcQ3xV1FCVpN4_--41" value="- int openPages" style="text;strokeColor=none;fillColor=none;align=left;verticalAlign=top;spacingLeft=4;spacingRight=4;overflow=hidden;rotatable=0;points=[[0,0.5],[1,0.5]];portConstraint=eastwest;whiteSpace=wrap;html=1;" vertex="1" parent="zkfFHV4jXpPFQw0GAbJ--0">
          <mxGeometry y="52" width="176" height="26" as="geometry" />
        </mxCell>
        <mxCell id="iZRv-LcQ3xV1FCVpN4_--42" value="- String [] phoneRecord" style="text;strokeColor=none;fillColor=none;align=left;verticalAlign=top;spacingLeft=4;spacingRight=4;overflow=hidden;rotatable=0;points=[[0,0.5],[1,0.5]];portConstraint=eastwest;whiteSpace=wrap;html=1;" vertex="1" parent="zkfFHV4jXpPFQw0GAbJ--0">
          <mxGeometry y="78" width="176" height="26" as="geometry" />
        </mxCell>
        <mxCell id="iZRv-LcQ3xV1FCVpN4_--43" value="- boolean isPlayingMusic" style="text;strokeColor=none;fillColor=none;align=left;verticalAlign=top;spacingLeft=4;spacingRight=4;overflow=hidden;rotatable=0;points=[[0,0.5],[1,0.5]];portConstraint=eastwest;whiteSpace=wrap;html=1;" vertex="1" parent="zkfFHV4jXpPFQw0GAbJ--0">
          <mxGeometry y="104" width="176" height="26" as="geometry" />
        </mxCell>
        <mxCell id="iZRv-LcQ3xV1FCVpN4_--44" value="- int currentIndexPhoneRecord" style="text;strokeColor=none;fillColor=none;align=left;verticalAlign=top;spacingLeft=4;spacingRight=4;overflow=hidden;rotatable=0;points=[[0,0.5],[1,0.5]];portConstraint=eastwest;whiteSpace=wrap;html=1;" vertex="1" parent="zkfFHV4jXpPFQw0GAbJ--0">
          <mxGeometry y="130" width="176" height="26" as="geometry" />
        </mxCell>
        <mxCell id="zkfFHV4jXpPFQw0GAbJ--4" value="" style="line;html=1;strokeWidth=1;align=left;verticalAlign=middle;spacingTop=-1;spacingLeft=3;spacingRight=3;rotatable=0;labelPosition=right;points=[];portConstraint=eastwest;" parent="zkfFHV4jXpPFQw0GAbJ--0" vertex="1">
          <mxGeometry y="156" width="176" height="10" as="geometry" />
        </mxCell>
        <mxCell id="iZRv-LcQ3xV1FCVpN4_--47" value="+ void showStatus()" style="text;strokeColor=none;fillColor=none;align=left;verticalAlign=top;spacingLeft=4;spacingRight=4;overflow=hidden;rotatable=0;points=[[0,0.5],[1,0.5]];portConstraint=eastwest;whiteSpace=wrap;html=1;" vertex="1" parent="zkfFHV4jXpPFQw0GAbJ--0">
          <mxGeometry y="166" width="176" height="26" as="geometry" />
        </mxCell>
        <mxCell id="iZRv-LcQ3xV1FCVpN4_--48" value="+ void getMusicPlaying()" style="text;strokeColor=none;fillColor=none;align=left;verticalAlign=top;spacingLeft=4;spacingRight=4;overflow=hidden;rotatable=0;points=[[0,0.5],[1,0.5]];portConstraint=eastwest;whiteSpace=wrap;html=1;" vertex="1" parent="zkfFHV4jXpPFQw0GAbJ--0">
          <mxGeometry y="192" width="176" height="26" as="geometry" />
        </mxCell>
        <mxCell id="zkfFHV4jXpPFQw0GAbJ--6" value="Student" style="swimlane;fontStyle=0;align=center;verticalAlign=top;childLayout=stackLayout;horizontal=1;startSize=0;horizontalStack=0;resizeParent=1;resizeLast=0;collapsible=1;marginBottom=0;rounded=0;shadow=0;strokeWidth=1;" parent="WIyWlLk6GJQsqaUBKTNV-1" vertex="1">
          <mxGeometry x="60" y="560" width="160" height="170" as="geometry">
            <mxRectangle x="130" y="380" width="160" height="26" as="alternateBounds" />
          </mxGeometry>
        </mxCell>
        <mxCell id="iZRv-LcQ3xV1FCVpN4_--1" value="«interface»&lt;br&gt;&lt;b&gt;AparelhoTelefonico&lt;/b&gt;" style="html=1;whiteSpace=wrap;" vertex="1" parent="zkfFHV4jXpPFQw0GAbJ--6">
          <mxGeometry width="160" height="50" as="geometry" />
        </mxCell>
        <mxCell id="zkfFHV4jXpPFQw0GAbJ--7" value="+ void ligar (string numero)" style="text;align=left;verticalAlign=top;spacingLeft=4;spacingRight=4;overflow=hidden;rotatable=0;points=[[0,0.5],[1,0.5]];portConstraint=eastwest;" parent="zkfFHV4jXpPFQw0GAbJ--6" vertex="1">
          <mxGeometry y="50" width="160" height="26" as="geometry" />
        </mxCell>
        <mxCell id="zkfFHV4jXpPFQw0GAbJ--8" value="+ void atender()&#xa;&#xa;+ void iniciarCorreioDeVoz()&#xa;&#xa;+ void callLastNumber" style="text;align=left;verticalAlign=top;spacingLeft=4;spacingRight=4;overflow=hidden;rotatable=0;points=[[0,0.5],[1,0.5]];portConstraint=eastwest;rounded=0;shadow=0;html=0;" parent="zkfFHV4jXpPFQw0GAbJ--6" vertex="1">
          <mxGeometry y="76" width="160" height="94" as="geometry" />
        </mxCell>
        <mxCell id="iZRv-LcQ3xV1FCVpN4_--23" style="edgeStyle=orthogonalEdgeStyle;rounded=0;orthogonalLoop=1;jettySize=auto;html=1;exitX=0.5;exitY=1;exitDx=0;exitDy=0;" edge="1" parent="WIyWlLk6GJQsqaUBKTNV-1">
          <mxGeometry relative="1" as="geometry">
            <mxPoint x="400" y="490" as="sourcePoint" />
            <mxPoint x="400" y="490" as="targetPoint" />
          </mxGeometry>
        </mxCell>
        <mxCell id="iZRv-LcQ3xV1FCVpN4_--34" value="" style="group;spacingLeft=10;align=left;" vertex="1" connectable="0" parent="WIyWlLk6GJQsqaUBKTNV-1">
          <mxGeometry x="580" y="550" width="210" height="290" as="geometry" />
        </mxCell>
        <mxCell id="iZRv-LcQ3xV1FCVpN4_--30" style="edgeStyle=orthogonalEdgeStyle;rounded=0;orthogonalLoop=1;jettySize=auto;html=1;exitX=0.5;exitY=1;exitDx=0;exitDy=0;" edge="1" parent="iZRv-LcQ3xV1FCVpN4_--34">
          <mxGeometry relative="1" as="geometry">
            <mxPoint x="100" y="125.02551020408166" as="sourcePoint" />
            <mxPoint x="100" y="125.02551020408166" as="targetPoint" />
          </mxGeometry>
        </mxCell>
        <mxCell id="iZRv-LcQ3xV1FCVpN4_--33" value="" style="html=1;whiteSpace=wrap;align=left;" vertex="1" parent="iZRv-LcQ3xV1FCVpN4_--34">
          <mxGeometry y="43.28" width="210" height="146.72" as="geometry" />
        </mxCell>
        <mxCell id="iZRv-LcQ3xV1FCVpN4_--49" value="+ void openURL (String url)" style="text;strokeColor=none;fillColor=none;align=left;verticalAlign=top;spacingLeft=4;spacingRight=4;overflow=hidden;rotatable=0;points=[[0,0.5],[1,0.5]];portConstraint=eastwest;whiteSpace=wrap;html=1;" vertex="1" parent="iZRv-LcQ3xV1FCVpN4_--34">
          <mxGeometry y="51.352500000000006" width="210" height="26.92857142857143" as="geometry" />
        </mxCell>
        <mxCell id="iZRv-LcQ3xV1FCVpN4_--50" value="+ void openNewPage" style="text;strokeColor=none;fillColor=none;align=left;verticalAlign=top;spacingLeft=4;spacingRight=4;overflow=hidden;rotatable=0;points=[[0,0.5],[1,0.5]];portConstraint=eastwest;whiteSpace=wrap;html=1;" vertex="1" parent="iZRv-LcQ3xV1FCVpN4_--34">
          <mxGeometry y="78.28107142857144" width="210" height="26.92857142857143" as="geometry" />
        </mxCell>
        <mxCell id="iZRv-LcQ3xV1FCVpN4_--51" value="+ void closePage()" style="text;strokeColor=none;fillColor=none;align=left;verticalAlign=top;spacingLeft=4;spacingRight=4;overflow=hidden;rotatable=0;points=[[0,0.5],[1,0.5]];portConstraint=eastwest;whiteSpace=wrap;html=1;" vertex="1" parent="iZRv-LcQ3xV1FCVpN4_--34">
          <mxGeometry y="105.21000000000001" width="210" height="22.86" as="geometry" />
        </mxCell>
        <mxCell id="iZRv-LcQ3xV1FCVpN4_--53" value="+ void closeAllPages()" style="text;strokeColor=none;fillColor=none;align=left;verticalAlign=top;spacingLeft=4;spacingRight=4;overflow=hidden;rotatable=0;points=[[0,0.5],[1,0.5]];portConstraint=eastwest;whiteSpace=wrap;html=1;" vertex="1" parent="iZRv-LcQ3xV1FCVpN4_--34">
          <mxGeometry y="130" width="210" height="22.86" as="geometry" />
        </mxCell>
        <mxCell id="iZRv-LcQ3xV1FCVpN4_--54" value="+ void refreshPage()" style="text;strokeColor=none;fillColor=none;align=left;verticalAlign=top;spacingLeft=4;spacingRight=4;overflow=hidden;rotatable=0;points=[[0,0.5],[1,0.5]];portConstraint=eastwest;whiteSpace=wrap;html=1;" vertex="1" parent="iZRv-LcQ3xV1FCVpN4_--34">
          <mxGeometry y="160" width="210" height="22.86" as="geometry" />
        </mxCell>
        <mxCell id="iZRv-LcQ3xV1FCVpN4_--36" style="edgeStyle=orthogonalEdgeStyle;rounded=0;orthogonalLoop=1;jettySize=auto;html=1;exitX=0;exitY=0.5;exitDx=0;exitDy=0;entryX=0.5;entryY=1;entryDx=0;entryDy=0;" edge="1" parent="WIyWlLk6GJQsqaUBKTNV-1" source="iZRv-LcQ3xV1FCVpN4_--24" target="zkfFHV4jXpPFQw0GAbJ--0">
          <mxGeometry relative="1" as="geometry">
            <mxPoint x="417.20000000000005" y="181.03999999999996" as="targetPoint" />
            <Array as="points">
              <mxPoint x="414" y="360" />
            </Array>
          </mxGeometry>
        </mxCell>
        <mxCell id="iZRv-LcQ3xV1FCVpN4_--37" style="edgeStyle=orthogonalEdgeStyle;rounded=0;orthogonalLoop=1;jettySize=auto;html=1;exitX=0.5;exitY=0;exitDx=0;exitDy=0;entryX=0.25;entryY=1;entryDx=0;entryDy=0;" edge="1" parent="WIyWlLk6GJQsqaUBKTNV-1" source="iZRv-LcQ3xV1FCVpN4_--1" target="zkfFHV4jXpPFQw0GAbJ--0">
          <mxGeometry relative="1" as="geometry">
            <mxPoint x="370" y="259.9999999999999" as="targetPoint" />
          </mxGeometry>
        </mxCell>
        <mxCell id="iZRv-LcQ3xV1FCVpN4_--35" style="edgeStyle=orthogonalEdgeStyle;rounded=0;orthogonalLoop=1;jettySize=auto;html=1;exitX=0;exitY=0.5;exitDx=0;exitDy=0;entryX=0.75;entryY=1;entryDx=0;entryDy=0;" edge="1" parent="WIyWlLk6GJQsqaUBKTNV-1" source="iZRv-LcQ3xV1FCVpN4_--32" target="zkfFHV4jXpPFQw0GAbJ--0">
          <mxGeometry relative="1" as="geometry">
            <mxPoint x="459.9999999999998" y="259.9999999999999" as="targetPoint" />
          </mxGeometry>
        </mxCell>
        <mxCell id="iZRv-LcQ3xV1FCVpN4_--45" value="" style="group" vertex="1" connectable="0" parent="WIyWlLk6GJQsqaUBKTNV-1">
          <mxGeometry x="309" y="560" width="210" height="140" as="geometry" />
        </mxCell>
        <mxCell id="iZRv-LcQ3xV1FCVpN4_--25" value="«interface»&lt;br&gt;&lt;b&gt;ReprodutorMusical&lt;/b&gt;" style="html=1;whiteSpace=wrap;container=1;" vertex="1" parent="iZRv-LcQ3xV1FCVpN4_--45">
          <mxGeometry width="210" height="45" as="geometry" />
        </mxCell>
        <mxCell id="iZRv-LcQ3xV1FCVpN4_--24" value="" style="swimlane;fontStyle=0;align=center;verticalAlign=top;childLayout=stackLayout;horizontal=1;startSize=0;horizontalStack=0;resizeParent=1;resizeLast=0;collapsible=1;marginBottom=0;rounded=0;shadow=0;strokeWidth=1;direction=south;" vertex="1" parent="iZRv-LcQ3xV1FCVpN4_--25">
          <mxGeometry width="210" height="45" as="geometry">
            <mxRectangle x="130" y="380" width="160" height="26" as="alternateBounds" />
          </mxGeometry>
        </mxCell>
        <mxCell id="iZRv-LcQ3xV1FCVpN4_--29" value="+ void selecionarMusica(string musica)&lt;div&gt;&lt;br&gt;&lt;/div&gt;&lt;div&gt;+ void tocar()&lt;/div&gt;&lt;div&gt;&lt;br&gt;&lt;/div&gt;&lt;div&gt;+ void pausar()&lt;/div&gt;" style="html=1;whiteSpace=wrap;align=left;" vertex="1" parent="iZRv-LcQ3xV1FCVpN4_--45">
          <mxGeometry y="45" width="210" height="95" as="geometry" />
        </mxCell>
        <mxCell id="iZRv-LcQ3xV1FCVpN4_--31" value="«interface»&lt;br&gt;&lt;b&gt;NavegadorDeInternet&lt;/b&gt;" style="html=1;whiteSpace=wrap;container=1;" vertex="1" parent="WIyWlLk6GJQsqaUBKTNV-1">
          <mxGeometry x="580" y="560" width="210" height="41.785714285714285" as="geometry" />
        </mxCell>
        <mxCell id="iZRv-LcQ3xV1FCVpN4_--32" value="" style="swimlane;fontStyle=0;align=center;verticalAlign=top;childLayout=stackLayout;horizontal=1;startSize=0;horizontalStack=0;resizeParent=1;resizeLast=0;collapsible=1;marginBottom=0;rounded=0;shadow=0;strokeWidth=1;direction=south;" vertex="1" parent="iZRv-LcQ3xV1FCVpN4_--31">
          <mxGeometry width="210" height="41.785714285714285" as="geometry">
            <mxRectangle x="130" y="380" width="160" height="26" as="alternateBounds" />
          </mxGeometry>
        </mxCell>
      </root>
    </mxGraphModel>
  </diagram>
</mxfile>
